<svg width="19" height="24" viewBox="0 0 19 24" fill="none" xmlns="http://www.w3.org/2000/svg">
<path d="M9.5 21.8705C9.37719 21.7429 9.24568 21.605 9.10666 21.4577C8.23609 20.535 7.07912 19.2496 5.92607 17.7931C4.76884 16.3313 3.6403 14.7282 2.80758 13.1685C1.95865 11.5785 1.5 10.1849 1.5 9.10345C1.5 6.60639 2.41765 4.74533 3.80926 3.49516C5.22114 2.22677 7.22152 1.5 9.5 1.5C11.7785 1.5 13.7789 2.22677 15.1907 3.49516C16.5824 4.74533 17.5 6.60639 17.5 9.10345C17.5 10.1849 17.0413 11.5785 16.1924 13.1685C15.3597 14.7282 14.2312 16.3313 13.0739 17.7931C11.9209 19.2496 10.7639 20.535 9.89334 21.4577C9.75432 21.605 9.6228 21.7429 9.5 21.8705Z" stroke="#7A7A7A" stroke-width="3"/>
</svg>
